<svg width="20" height="20" viewBox="0 0 20 20" fill="none" xmlns="http://www.w3.org/2000/svg">
<path fill-rule="evenodd" clip-rule="evenodd" d="M0.0429205 8.56565C-0.317861 6.15592 1.6418 3.99997 4.1929 3.99997H15.8071C18.3582 3.99997 20.3179 6.15592 19.9571 8.56566L18.8879 15.7071C18.5191 18.1703 16.3082 20 13.7004 20H6.2996C3.69184 20 1.48092 18.1703 1.11212 15.7071L0.0429205 8.56565ZM4.1929 5.99997C2.91735 5.99997 1.93752 7.07795 2.11791 8.28281L3.18711 15.4242C3.40839 16.9022 4.73494 18 6.2996 18H13.7004C15.2651 18 16.5916 16.9022 16.8129 15.4242L17.8821 8.28281C18.0625 7.07795 17.0827 5.99997 15.8071 5.99997H4.1929Z" fill="white"/>
<path fill-rule="evenodd" clip-rule="evenodd" d="M4.75997 2.76363C5.64765 1.06962 7.46201 0 9.44673 0H10.5532C12.538 0 14.3525 1.07003 15.2401 2.76397L16.1775 4.5528C16.4363 5.04678 16.2265 5.64745 15.7088 5.89443C15.1911 6.14142 14.5616 5.94119 14.3027 5.44721L13.3654 3.65838C12.8328 2.64202 11.7441 2 10.5532 2H9.44673C8.25574 2 7.16727 2.64179 6.63474 3.65806L5.69719 5.44722C5.43834 5.94119 4.80882 6.14142 4.29111 5.89443C3.77341 5.64744 3.56357 5.04677 3.82242 4.55279L4.75997 2.76363Z" fill="white"/>
</svg>
